<?xml version="1.0" encoding="UTF-8"?>
<svg xmlns="http://www.w3.org/2000/svg" x="0px" y="0px" style="fill: #157d17" viewBox="17.17 17.17 137.65 137.65">
  <g fill="none" fill-rule="nonzero" stroke="none" stroke-width="1" stroke-linecap="butt" stroke-linejoin="miter" stroke-miterlimit="10" stroke-dasharray="" stroke-dashoffset="0" font-family="none" font-weight="none" font-size="none" text-anchor="none" style="mix-blend-mode: normal">
    <path d="M0,172v-172h172v172z" fill="none"></path>
    <g fill="#157d17">
      <path d="M123.84,17.2h-75.68c-17.10024,0 -30.96,13.85976 -30.96,30.96v75.68c0,17.10024 13.85976,30.96 30.96,30.96h75.68c17.10024,0 30.96,-13.85976 30.96,-30.96v-75.68c0,-17.10024 -13.85976,-30.96 -30.96,-30.96zM131.3736,73.11376c2.236,-0.95976 4.8848,-1.09048 7.1208,-0.41624c0.9288,0.28896 1.7544,0.67424 2.5456,1.1524v4.2312c-2.4768,-1.69936 -5.332,-2.18096 -7.5336,-0.99416c-2.3392,1.28312 -3.7152,3.9732 -3.6464,6.794c-0.0344,3.10976 0.9976,5.99248 3.1648,7.33752c1.9264,1.31408 4.9536,1.31408 8.0152,0.83248v3.526c-1.204,0.38528 -2.4768,0.60888 -3.784,0.73616c-2.1672,0.16168 -4.5752,-0.16168 -6.708,-1.31408c-2.1672,-1.12144 -3.7496,-3.07536 -4.644,-5.03272c-0.86,-2.01928 -1.1696,-4.06952 -1.204,-6.02688c-0.1032,-4.1624 2.1328,-8.8408 6.6736,-10.82568zM116.96,61.9544c1.89888,0 3.44,1.54112 3.44,3.44c0,1.89888 -1.54112,3.44 -3.44,3.44c-1.89888,0 -3.44,-1.54112 -3.44,-3.44c0,-1.89888 1.54112,-3.44 3.44,-3.44zM119.54,72.2744v24.08h-5.16v-24.08zM92.88,90.042c2.2016,0.89784 4.8848,1.83008 6.9832,2.0296c2.0984,0.23392 4.4032,-0.0344 5.7448,-0.76712c0.6536,-0.39904 0.7912,-0.95632 0.7912,-1.57552c0,-0.6192 -0.12384,-0.97008 -0.42312,-1.43448c-0.54696,-0.84624 -2.05368,-1.48608 -4.42728,-2.05368c-1.1696,-0.33368 -2.4424,-0.66736 -3.8528,-1.43104c-1.4104,-0.63296 -4.27592,-2.93088 -3.71864,-6.84904c0.29928,-2.09496 2.46992,-4.1452 5.50744,-5.10152c3.53976,-1.118 7.396,-0.56416 10.5952,0.96664v4.26216c-2.8552,-1.46544 -6.2608,-2.20504 -9.1504,-1.24184c-0.86,0.26488 -1.9952,0.86344 -1.9952,1.94016c0,2.58344 2.9928,3.07192 4.128,3.44c1.1696,0.36464 2.4424,0.69832 3.8184,1.39664c1.376,0.66736 4.13488,2.33232 4.13488,6.13352c0,3.63952 -1.79568,4.97768 -3.27488,5.57624c-3.0616,1.33128 -5.7792,1.09736 -8.428,0.73272c-2.236,-0.39904 -4.4032,-1.0664 -6.4328,-2.32888zM69.66,72.28128l5.16,-0.00688l0.01032,8.3248c0.04816,2.7176 0.04128,5.67944 0.01032,8.19752c-0.1204,1.34504 1.38288,2.91368 3.35744,3.15448c1.05264,0.11696 1.83696,0.03096 3.04784,-0.4816c0.71552,-0.28208 1.4448,-0.52288 2.17408,-0.774v-18.4212l5.16,0.00344v23.45392h-5.16v-0.81184c-0.14104,0.07568 -0.2752,0.15824 -0.4128,0.23048c-1.31064,0.78432 -3.41248,1.32784 -5.20816,1.17992c-1.86448,-0.1204 -3.74272,-0.774 -5.27352,-2.01584c-1.52048,-1.22464 -2.66944,-3.1476 -2.81736,-5.25976c-0.09288,-3.0272 -0.0688,-5.62096 -0.03784,-8.45208zM31.82,72.2744h5.16v2.36672c1.2728,-0.46096 2.53528,-0.94256 3.81496,-1.37944c1.8404,-0.6536 4.14864,-0.52288 5.96152,0.48504c0.74992,0.40248 1.40696,0.97008 1.98488,1.61336c1.93328,-0.71552 3.86312,-1.43448 5.81016,-2.10184c1.8404,-0.6536 4.14864,-0.52288 5.96152,0.48504c1.83008,0.98384 3.25424,2.78296 3.75992,4.87792c0.13416,0.52288 0.19264,1.05264 0.2236,1.58584l0.01376,1.09048l0.02064,2.15l-0.02064,4.3l-0.01032,8.6h-5.16l-0.02064,-16.66336c-0.14448,-1.462 -1.78536,-2.74168 -3.50536,-2.27384c-1.7544,0.4644 -3.52256,0.8772 -5.28728,1.30376c0.11696,0.49192 0.17888,0.98728 0.20984,1.48952l0.01376,1.09048l0.02064,2.15l-0.02064,4.3l-0.01032,8.6h-5.16l-0.02064,-16.66336c-0.14448,-1.46544 -1.78536,-2.74168 -3.50536,-2.27384c-1.68216,0.4472 -3.38152,0.8428 -5.074,1.25216v17.6816h-5.16c0,0 0,-24.06624 0,-24.06624zM133.36192,116.72608c-7.61616,5.4008 -16.12672,8.9612 -25.0604,11.27288c-8.9268,2.28072 -18.22168,3.14416 -27.47184,2.50776c-9.24672,-0.6192 -18.27672,-2.87584 -26.78728,-6.17136c-8.48304,-3.4056 -16.50168,-7.78472 -23.58808,-13.52264c-0.36808,-0.29928 -0.42656,-0.8428 -0.12728,-1.21088c0.26488,-0.3268 0.71896,-0.40936 1.07672,-0.21672l0.04816,0.02752c7.73656,4.18648 16.00632,7.39256 24.31048,9.93816c8.36952,2.38048 16.88696,4.08328 25.456,4.43072c8.5484,0.29928 17.18968,-0.36808 25.62456,-2.12248c8.40048,-1.73376 16.8732,-4.25184 24.6648,-7.83976l0.13416,-0.06192c0.86344,-0.3956 1.88168,-0.02064 2.28072,0.8428c0.35776,0.76712 0.1032,1.65808 -0.56072,2.12592zM137.19408,126.90848c-0.95632,0.7224 -1.91264,0.4816 -1.43448,-0.7224c1.43448,-3.8528 4.5408,-12.04344 3.10632,-13.96984c-1.67184,-2.1672 -10.27528,-0.9632 -14.09712,-0.4816c-1.19368,0 -1.19368,-0.9632 -0.23736,-1.6856c3.34368,-2.408 7.88448,-3.3712 11.70976,-3.3712c3.82184,0 7.16896,0.7224 7.88448,1.9264c1.19024,1.44136 -0.4816,12.7624 -6.9316,18.30424z"></path>
    </g>
  </g>
</svg>
